<svg xmlns="http://www.w3.org/2000/svg" viewBox="0 0 686.17 127.79"><defs><style>.cls-1,.cls-4{fill:#df3562;}.cls-2,.cls-5{fill:#3d156b;}.cls-3{fill:#feb97e;}.cls-4,.cls-5{fill-rule:evenodd;}</style></defs><title>Logo.AD</title><g id="Capa_2" data-name="Capa 2"><g id="Capa_1-2" data-name="Capa 1"><rect class="cls-1" x="42.75" y="32.07" width="26.37" height="26.37" transform="translate(-15.61 52.81) rotate(-45)"></rect><rect class="cls-2" x="61.4" y="13.42" width="26.37" height="26.37" transform="translate(3.03 60.53) rotate(-45)"></rect><rect class="cls-2" x="31.66" y="20.98" width="11.26" height="11.26" transform="translate(-7.89 34.16) rotate(-45)"></rect><rect class="cls-1" x="98.69" y="13.42" width="26.37" height="26.37" transform="translate(13.95 86.9) rotate(-45)"></rect><rect class="cls-3" x="5.46" y="69.36" width="26.37" height="26.37" transform="translate(-52.91 37.36) rotate(-45)"></rect><polygon class="cls-4" points="37.29 82.54 55.94 101.19 37.29 119.83 18.64 101.19 37.29 82.54"></polygon><polygon class="cls-5" points="55.94 101.19 74.58 119.83 93.23 101.19 74.58 82.54 55.94 101.19"></polygon><rect class="cls-1" x="80.04" y="69.36" width="26.37" height="26.37" transform="translate(-31.06 90.1) rotate(-45)"></rect><rect class="cls-3" x="98.69" y="50.71" width="26.37" height="26.37" transform="translate(-12.42 97.82) rotate(-45)"></rect><rect class="cls-3" x="5.46" y="32.07" width="26.37" height="26.37" transform="translate(-26.54 26.44) rotate(-45)"></rect><rect class="cls-2" x="50.31" y="114.21" width="11.26" height="11.26" transform="translate(-68.36 74.67) rotate(-45.01)"></rect><rect class="cls-2" x="87.6" y="2.33" width="11.26" height="11.26" transform="translate(21.68 68.25) rotate(-45)"></rect><path class="cls-2" d="M154.27,71.71l11.6-31h8.21l11.6,31h-8.43l-1.91-5.56H164.52l-2,5.56ZM169.91,49.3l-3.52,10.86h7L170,49.3Z"></path><polygon class="cls-2" points="215.09 40.7 203.79 60.16 203.79 71.72 195.71 71.72 195.71 60.16 184.42 40.7 193.59 40.7 199.75 53.3 205.92 40.7 215.09 40.7"></polygon><path class="cls-2" d="M243.8,40.7V58.9q0,6.83-3.22,10.12t-10.29,3.35q-6.94,0-10.23-3.33T216.78,58.9V40.7h8.08V59.38c0,4,1.81,6,5.43,6s5.43-2,5.43-6V40.7Z"></path><path class="cls-2" d="M249.19,71.71v-31h13.33q7.13,0,11.17,4.08t4,11.3q0,7.56-4,11.59t-11.19,4Zm8.08-24.06V64.76h3.82q4.61,0,6.58-2t2-6.69q0-8.39-8.56-8.38Z"></path><path class="cls-2" d="M279,71.71l11.6-31h8.21l11.6,31H302l-1.91-5.56H289.24l-2,5.56ZM294.62,49.3,291.1,60.16h7L294.71,49.3Z"></path><path class="cls-1" d="M326.42,71.71v-31h13.33q7.13,0,11.17,4.08t4,11.3q0,7.56-4,11.59t-11.19,4Zm8.08-24.06V64.76h3.82q4.6,0,6.58-2t2-6.69q0-8.39-8.56-8.38Z"></path><rect class="cls-1" x="359.39" y="40.7" width="8.08" height="31.02"></rect><path class="cls-1" d="M401.7,54.73v17h-5.21L396,68.33q-2.86,4-8.65,4a14.64,14.64,0,0,1-11.25-4.7,16.23,16.23,0,0,1-4.21-11.46,16.32,16.32,0,0,1,4.28-11.54,14.53,14.53,0,0,1,11.18-4.62,15.67,15.67,0,0,1,9.17,2.69,11.19,11.19,0,0,1,4.86,8.51h-8.08a4,4,0,0,0-1.91-3.1A7.43,7.43,0,0,0,387.19,47a6.25,6.25,0,0,0-5.56,2.87A11.2,11.2,0,0,0,380,56.21a11.2,11.2,0,0,0,1.65,6.34,6.27,6.27,0,0,0,5.56,2.87,8.49,8.49,0,0,0,4.86-1.29,4.91,4.91,0,0,0,2.26-3.41h-5.64v-6Z"></path><rect class="cls-1" x="406.87" y="40.7" width="8.08" height="31.02"></rect><polygon class="cls-1" points="445.14 40.7 445.14 47.65 435.88 47.65 435.88 71.72 427.8 71.72 427.8 47.65 418.55 47.65 418.55 40.7 445.14 40.7"></polygon><path class="cls-1" d="M445.53,71.71l11.59-31h8.21l11.6,31h-8.42l-1.92-5.56H455.78l-2,5.56ZM461.16,49.3l-3.51,10.86h7L461.25,49.3Z"></path><polygon class="cls-1" points="479.28 71.71 479.28 40.7 487.36 40.7 487.36 64.76 501.82 64.76 501.82 71.71 479.28 71.71"></polygon><rect class="cls-1" x="505.82" y="40.7" width="8.08" height="31.02"></rect><polygon class="cls-1" points="517.76 71.71 517.76 65.11 533.66 47.65 518.72 47.65 518.72 40.7 544.09 40.7 544.09 46.95 527.8 64.76 544.65 64.76 544.65 71.71 517.76 71.71"></polygon><path class="cls-1" d="M545.3,71.71l11.6-31h8.21l11.6,31h-8.43l-1.91-5.56H555.56l-2,5.56ZM560.94,49.3l-3.52,10.86h7L561,49.3Z"></path><path class="cls-1" d="M607.73,51.78h-8.08a5,5,0,0,0-2-3.54A7,7,0,0,0,593.39,47a6.26,6.26,0,0,0-5.56,2.86,11.24,11.24,0,0,0-1.65,6.35,11.23,11.23,0,0,0,1.65,6.34,6.27,6.27,0,0,0,5.56,2.87c3.85,0,5.94-1.92,6.26-5.74h8.08a12.58,12.58,0,0,1-4.24,9.3,16,16,0,0,1-21.18-1.31,16.23,16.23,0,0,1-4.21-11.46,16.37,16.37,0,0,1,4.28-11.54,14.53,14.53,0,0,1,11.18-4.62,15.59,15.59,0,0,1,9.52,3,10.94,10.94,0,0,1,4.65,8.69"></path><rect class="cls-1" x="612.03" y="40.7" width="8.08" height="31.02"></rect><path class="cls-1" d="M624.54,56.21a16.57,16.57,0,0,1,4-11.47q4.17-4.69,11.3-4.69t11.29,4.69a16.58,16.58,0,0,1,4,11.47,16.57,16.57,0,0,1-4,11.46q-4.17,4.69-11.29,4.7t-11.3-4.7a16.56,16.56,0,0,1-4-11.46m8.08,0a11.23,11.23,0,0,0,1.65,6.34,6.82,6.82,0,0,0,11.12,0A11.23,11.23,0,0,0,647,56.21a11.26,11.26,0,0,0-1.65-6.35,6.83,6.83,0,0,0-11.12,0,11.26,11.26,0,0,0-1.65,6.35m7-23.89h7.81l-6.82,6.47h-5.21Z"></path><polygon class="cls-1" points="659.42 71.71 659.42 40.7 667.75 40.7 678.57 59.81 678.57 40.7 686.17 40.7 686.17 71.71 677.84 71.71 667.02 52.38 667.02 71.71 659.42 71.71"></polygon><path class="cls-2" d="M170.71,90.29c-.75-2.49-2.61-3.78-5.49-3.78-4.2,0-6.63,3-6.63,8.25s2.4,8,6.6,8a5.57,5.57,0,0,0,5.91-5.55h2.48c-.44,5-3.53,7.8-8.42,7.8-5.67,0-9.12-3.9-9.12-10.29s3.57-10.5,9.18-10.5c4.23,0,7.32,2.34,8,6Z"></path><path class="cls-2" d="M198.52,94.67c0,6.18-3.9,10.38-9.66,10.38s-9.66-4.2-9.66-10.38,3.9-10.41,9.78-10.41C194.62,84.26,198.52,88.52,198.52,94.67Zm-16.77,0c0,5,2.73,8.13,7.11,8.13S196,99.71,196,94.67s-2.7-8.16-7-8.16C184.42,86.51,181.75,89.54,181.75,94.67Z"></path><path class="cls-2" d="M218.31,100.76V84.65h2.56v20h-2.71l-10.49-16.2v16.2h-2.55v-20h2.73Z"></path><path class="cls-2" d="M230.79,93.26h10.89v2.16H230.79v7h12.27v2.25H228.25v-20h14.51V86.9h-12Z"></path><path class="cls-2" d="M262.71,90.29c-.75-2.49-2.61-3.78-5.49-3.78-4.2,0-6.62,3-6.62,8.25s2.4,8,6.59,8a5.57,5.57,0,0,0,5.91-5.55h2.49c-.45,5-3.54,7.8-8.43,7.8-5.66,0-9.11-3.9-9.11-10.29s3.57-10.5,9.17-10.5c4.23,0,7.32,2.34,8,6Z"></path><path class="cls-2" d="M278.73,104.66h-2.57V86.9h-6.57V84.65h15.59V86.9h-6.45Z"></path><path class="cls-2" d="M288.85,104.66H286l7.35-20h2.94l7.34,20h-2.85l-2.09-6.06H291ZM298,96.5l-3.19-9.3-3.17,9.3Z"></path><path class="cls-2" d="M318.09,101.36l6.57-16.71h3.24v20h-2.55V88.85l-6.18,15.81H317l-6.12-15.81v15.81h-2.55v-20h3.27Z"></path><path class="cls-2" d="M353.85,94.67c0,6.18-3.9,10.38-9.66,10.38s-9.65-4.2-9.65-10.38,3.89-10.41,9.77-10.41C350,84.26,353.85,88.52,353.85,94.67Zm-16.77,0c0,5,2.73,8.13,7.11,8.13s7.11-3.09,7.11-8.13-2.7-8.16-7-8.16C339.75,86.51,337.08,89.54,337.08,94.67Z"></path><path class="cls-2" d="M372.18,90.5c-.36-2.76-2-4-5.16-4-2.67,0-4.38,1.17-4.38,3a2.57,2.57,0,0,0,1.74,2.37A18.55,18.55,0,0,0,368.13,93c3,.69,4.26,1.14,5.19,1.74a4.78,4.78,0,0,1,2.22,4.23c0,3.75-3,6.12-7.8,6.12s-8-2.61-8.49-7.11h2.55a5.11,5.11,0,0,0,1.35,3.12,6.64,6.64,0,0,0,4.77,1.74c3,0,5.07-1.5,5.07-3.69,0-1.35-.72-2.28-2.28-2.91A21.06,21.06,0,0,0,367,95.12c-2.85-.66-3.78-1-4.68-1.56a4.34,4.34,0,0,1-2.25-3.93c0-3.24,2.82-5.4,7.05-5.4,4.56,0,7.08,2.07,7.59,6.27Z"></path><path class="cls-2" d="M394.8,102.41h10.74v2.25H392.25v-20h2.55Z"></path><path class="cls-2" d="M410.37,104.66h-2.85l7.35-20h2.94l7.35,20h-2.85l-2.1-6.06h-7.74Zm9.15-8.16-3.18-9.3-3.18,9.3Z"></path><path class="cls-2" d="M440.37,84.65h6.69c3.21,0,4.59.36,6.15,1.56,2.25,1.74,3.27,4.41,3.27,8.4q0,10-9.06,10h-7.05Zm6.9,17.76a8,8,0,0,0,3.87-.75c1.86-1.08,2.79-3.48,2.79-7.17,0-3.42-.9-5.64-2.76-6.78a7.82,7.82,0,0,0-4.23-.81h-4v15.51Z"></path><path class="cls-2" d="M465.63,104.66h-2.55v-20h2.55Z"></path><path class="cls-2" d="M490.38,94v10.62H488.7l-.78-2.58a7.65,7.65,0,0,1-6.48,3,8.24,8.24,0,0,1-6.63-2.85,10.47,10.47,0,0,1-2.55-7.32c0-6.51,3.72-10.62,9.63-10.62,4.53,0,7.38,2.22,8.19,6.36h-2.49c-.66-2.7-2.64-4.11-5.73-4.11-4.47,0-7.05,3-7.05,8.28,0,4.89,2.58,8,6.6,8A6.17,6.17,0,0,0,488,96.26v-.09h-6.12V94Z"></path><path class="cls-2" d="M499.92,104.66h-2.55v-20h2.55Z"></path><path class="cls-2" d="M514.08,104.66H511.5V86.9h-6.57V84.65h15.6V86.9h-6.45Z"></path><path class="cls-2" d="M524.19,104.66h-2.85l7.35-20h2.94l7.35,20h-2.85L534,98.6h-7.74Zm9.15-8.16-3.18-9.3L527,96.5Z"></path><path class="cls-2" d="M546.24,102.41H557v2.25H543.69v-20h2.55Z"></path><path class="cls-2" d="M564.21,104.66h-2.55v-20h2.55Z"></path><path class="cls-2" d="M572.73,102.41h12.84v2.25H569.82v-2.49l12-15.27H570.51V84.65H585v2.1Z"></path><path class="cls-2" d="M591.3,104.66h-2.85l7.35-20h2.94l7.35,20h-2.85l-2.1-6.06H593.4Zm9.15-8.16-3.18-9.3-3.18,9.3Z"></path><path class="cls-2" d="M624.54,90.29c-.75-2.49-2.61-3.78-5.49-3.78-4.2,0-6.63,3-6.63,8.25s2.4,8,6.6,8a5.57,5.57,0,0,0,5.91-5.55h2.49c-.45,5-3.54,7.8-8.43,7.8-5.67,0-9.12-3.9-9.12-10.29s3.57-10.5,9.18-10.5c4.23,0,7.32,2.34,8,6Z"></path><path class="cls-2" d="M636.36,104.66h-2.55v-20h2.55Z"></path><path class="cls-2" d="M662.31,94.67c0,6.18-3.9,10.38-9.66,10.38S643,100.85,643,94.67s3.9-10.41,9.78-10.41C658.41,84.26,662.31,88.52,662.31,94.67Zm-16.77,0c0,5,2.73,8.13,7.11,8.13s7.11-3.09,7.11-8.13-2.7-8.16-7-8.16C648.21,86.51,645.54,89.54,645.54,94.67Zm9.81-15.45-2.55,3.51h-1.44l1.23-3.51Z"></path><path class="cls-2" d="M682.11,100.76V84.65h2.55v20H682l-10.5-16.2v16.2h-2.55v-20h2.73Z"></path></g></g></svg>